<svg width="198" height="75" viewBox="0 0 198 75" fill="none" xmlns="http://www.w3.org/2000/svg">
<path d="M65.0635 28V2.47517H71.1166L79.9773 18.9934V2.47517H85.6293V28H79.5762L70.7155 11.4818V28H65.0635ZM105.874 25.9215C104.124 27.6718 101.766 28.547 98.7999 28.547C95.8342 28.547 93.464 27.6718 91.6894 25.9215C89.9148 24.1713 89.0275 21.9348 89.0275 19.2122C89.0275 16.4895 89.9148 14.2652 91.6894 12.5392C93.464 10.789 95.8342 9.91383 98.7999 9.91383C101.766 9.91383 104.124 10.789 105.874 12.5392C107.649 14.2652 108.536 16.4895 108.536 19.2122C108.536 21.9348 107.649 24.1713 105.874 25.9215ZM98.7999 23.8066C100.088 23.8066 101.109 23.3812 101.863 22.5304C102.616 21.6796 102.993 20.5735 102.993 19.2122C102.993 17.8508 102.616 16.7448 101.863 15.8939C101.109 15.0431 100.088 14.6177 98.7999 14.6177C97.4872 14.6177 96.4541 15.0431 95.7005 15.8939C94.9712 16.7448 94.6065 17.8508 94.6065 19.2122C94.6065 20.5735 94.9712 21.6796 95.7005 22.5304C96.4541 23.3812 97.4872 23.8066 98.7999 23.8066ZM120.897 23.6608C121.675 23.6608 122.32 23.6243 122.83 23.5514V28C121.76 28.1945 120.521 28.2917 119.111 28.2917C118.479 28.2917 117.92 28.2552 117.433 28.1823C116.947 28.1094 116.4 27.9514 115.792 27.7083C115.185 27.4409 114.686 27.0884 114.297 26.6508C113.908 26.2133 113.568 25.5812 113.276 24.7547C113.009 23.9282 112.875 22.9558 112.875 21.8376V14.8365H110.104V10.4243H112.875V5.20997H118.454V10.4243H122.429V14.8365H118.454V20.6707C118.454 21.8619 118.661 22.6641 119.074 23.0774C119.487 23.4663 120.095 23.6608 120.897 23.6608ZM134.045 28.547C131.176 28.547 128.891 27.6961 127.189 25.9945C125.488 24.2685 124.637 22.0077 124.637 19.2122C124.637 16.4166 125.488 14.168 127.189 12.4663C128.891 10.7647 131.176 9.91383 134.045 9.91383C136.646 9.91383 138.761 10.558 140.389 11.8464C142.018 13.1348 142.942 14.8851 143.161 17.0972H137.582C137.168 15.4442 136.002 14.6177 134.081 14.6177C132.866 14.6177 131.918 15.0188 131.237 15.821C130.556 16.6232 130.216 17.7536 130.216 19.2122C130.216 20.6707 130.556 21.8011 131.237 22.6033C131.918 23.4055 132.866 23.8066 134.081 23.8066C136.002 23.8066 137.168 23.0287 137.582 21.4729H143.161C142.942 23.6365 142.018 25.3624 140.389 26.6508C138.761 27.9149 136.646 28.547 134.045 28.547ZM157.623 9.9503C161.901 9.9503 164.041 12.3448 164.041 17.1337V28H158.425V18.9569C158.425 17.4497 158.182 16.3558 157.696 15.6752C157.234 14.9945 156.444 14.6542 155.326 14.6542C153.065 14.6542 151.935 16.0398 151.935 18.8111V28H146.356V2.47517H151.935V12.9768C152.98 10.9591 154.876 9.9503 157.623 9.9503ZM65.0635 59V33.4752H74.69C78.6525 33.4752 81.8127 34.7028 84.1707 37.158C86.5287 39.6133 87.7077 42.6398 87.7077 46.2376C87.7077 49.8354 86.5287 52.8619 84.1707 55.3171C81.837 57.7724 78.6768 59 74.69 59H65.0635ZM70.9707 54.0409H74.1431C76.5254 54.0409 78.3608 53.2873 79.6492 51.7801C80.9619 50.2486 81.6182 48.4011 81.6182 46.2376C81.6182 44.074 80.9619 42.2387 79.6492 40.7315C78.3608 39.2 76.5254 38.4343 74.1431 38.4343H70.9707V54.0409ZM108.338 49.3006C108.338 50.0298 108.289 50.8442 108.192 51.7437H95.211C95.2597 52.8862 95.6486 53.7735 96.3779 54.4055C97.1072 55.0376 98.0917 55.3536 99.3315 55.3536C101.033 55.3536 102.127 54.8066 102.613 53.7127H108.083C107.815 55.4387 106.867 56.8486 105.239 57.9425C103.634 59.0122 101.665 59.547 99.3315 59.547C96.3414 59.547 93.9834 58.7204 92.2575 57.0674C90.5315 55.4144 89.6685 53.1293 89.6685 50.2122C89.6685 47.3437 90.5315 45.0829 92.2575 43.4299C93.9834 41.7525 96.2807 40.9138 99.1492 40.9138C101.872 40.9138 104.084 41.6917 105.786 43.2475C107.487 44.8033 108.338 46.821 108.338 49.3006ZM95.211 48.2796H102.832C102.808 47.1127 102.48 46.2133 101.848 45.5812C101.215 44.9492 100.304 44.6332 99.1127 44.6332C97.9215 44.6332 96.9735 44.9735 96.2685 45.6542C95.5878 46.3105 95.2354 47.1856 95.211 48.2796ZM111.53 59V41.4243H117.109V43.9768C118.154 41.9591 120.05 40.9503 122.797 40.9503C127.075 40.9503 129.215 43.3448 129.215 48.1337V59H123.599V49.9569C123.599 48.4497 123.356 47.3558 122.87 46.6752C122.408 45.9945 121.618 45.6542 120.5 45.6542C118.239 45.6542 117.109 47.0398 117.109 49.8111V59H111.53ZM142.584 54.6608C143.361 54.6608 144.006 54.6243 144.516 54.5514V59C143.447 59.1945 142.207 59.2917 140.797 59.2917C140.165 59.2917 139.606 59.2552 139.119 59.1823C138.633 59.1094 138.086 58.9514 137.479 58.7083C136.871 58.4409 136.372 58.0884 135.984 57.6508C135.595 57.2133 135.254 56.5812 134.963 55.7547C134.695 54.9282 134.561 53.9558 134.561 52.8376V45.8365H131.79V41.4243H134.561V36.21H140.14V41.4243H144.115V45.8365H140.14V51.6707C140.14 52.8619 140.347 53.6641 140.76 54.0774C141.174 54.4663 141.781 54.6608 142.584 54.6608ZM154.603 59.474C152.051 59.474 150.033 58.6111 148.55 56.8851C147.067 55.1591 146.326 52.9348 146.326 50.2122C146.326 47.5381 147.091 45.326 148.623 43.5757C150.154 41.8254 152.172 40.9503 154.676 40.9503C155.916 40.9503 157.022 41.2177 157.994 41.7525C158.967 42.2873 159.696 43.0166 160.182 43.9403V41.4243H165.725V59H160.182V56.5204C159.696 57.3956 158.942 58.1127 157.921 58.6718C156.925 59.2066 155.818 59.474 154.603 59.474ZM156.207 54.8431C157.544 54.8431 158.578 54.4055 159.307 53.5304C160.036 52.6553 160.401 51.5492 160.401 50.2122C160.401 48.8995 160.036 47.8055 159.307 46.9304C158.578 46.0553 157.544 45.6177 156.207 45.6177C154.943 45.6177 153.922 46.0431 153.144 46.8939C152.391 47.7448 152.014 48.8508 152.014 50.2122C152.014 51.5735 152.391 52.6917 153.144 53.5669C153.922 54.4177 154.943 54.8431 156.207 54.8431ZM170.356 59V33.4752H175.935V59H170.356Z" fill="#161C39"/>
<path d="M38.0992 3V21.8292H18.8996V40.5402H0V3H38.0992Z" fill="#161C39"/>
<path d="M57.0006 21.8292V59.3694H18.9014V40.5402H38.101V21.8292H57.0006Z" fill="#161C39"/>
</svg>
